<svg width="96" height="96" viewBox="0 0 96 96" fill="none" xmlns="http://www.w3.org/2000/svg">
<path d="M74.3007 50.6096C73.2834 50.2001 72.6727 49.1767 72.6727 48.051C72.6727 46.9253 73.385 45.902 74.3007 45.4928C81.7282 41.7062 86.8151 33.9288 86.8151 25.0256C86.8151 12.3359 76.539 2 63.9228 2H19.8679C13.9667 2.10234 9.18481 6.91211 9.18481 12.8476V48.051V83.2548C9.18481 89.1901 13.9667 94 19.8679 94H63.9228C76.539 94 86.8151 83.664 86.8151 70.9744C86.7135 62.1736 81.7282 54.3958 74.3007 50.6096Z" fill="#239AFF"/>
<path d="M42.9611 34.3385C47.9464 34.3385 52.0162 29.7333 52.0162 24.1049C52.0162 18.4764 47.9464 13.8713 42.9611 13.8713C37.9756 13.8713 33.9059 18.4764 33.9059 24.1049C33.9059 29.7333 37.9756 34.3385 42.9611 34.3385Z" fill="white"/>
<path d="M39.5018 30.3475C42.5541 30.3475 45.0978 27.4821 45.0978 24.0027C45.0978 20.5232 42.5541 17.6578 39.5018 17.6578C36.4495 17.6578 33.9059 20.5232 33.9059 24.0027C33.9059 27.5844 36.4495 30.3475 39.5018 30.3475Z" fill="#1A2D3D"/>
<path d="M43.4682 21.0349C44.4858 20.0115 44.8925 18.5788 44.2821 17.9648C43.6717 17.3508 42.349 17.7602 41.3316 18.7835C40.3142 19.8069 39.9072 21.2396 40.5177 21.8536C41.1281 22.4676 42.4508 22.0583 43.4682 21.0349Z" fill="white"/>
<path d="M64.5268 34.3385C69.512 34.3385 73.5819 29.7333 73.5819 24.1049C73.5819 18.4764 69.512 13.8713 64.5268 13.8713C59.5412 13.8713 55.4713 18.4764 55.4713 24.1049C55.5733 29.7333 59.5412 34.3385 64.5268 34.3385Z" fill="white"/>
<path d="M61.1773 30.3475C64.2294 30.3475 66.7732 27.4821 66.7732 24.0027C66.7732 20.5232 64.2294 17.6578 61.1773 17.6578C58.1249 17.6578 55.5814 20.5232 55.5814 24.0027C55.5814 27.5844 58.0233 30.3475 61.1773 30.3475Z" fill="#1A2D3D"/>
<path d="M65.1438 21.0349C66.1612 20.0115 66.5683 18.5788 65.9576 17.9648C65.3474 17.3508 64.0245 17.7602 63.0071 18.7835C61.9897 19.8069 61.5827 21.2396 62.1933 21.8536C62.8036 22.4676 64.1264 22.0583 65.1438 21.0349Z" fill="white"/>
</svg>
