<svg width="135" height="30" viewBox="0 0 135 30" fill="none" xmlns="http://www.w3.org/2000/svg">
<path fill-rule="evenodd" clip-rule="evenodd" d="M113.279 16.998C114.152 17.2254 115.024 17.3229 115.96 17.3229C116.897 17.3229 117.801 17.2254 118.674 16.998C119.514 16.7706 120.256 16.4457 120.902 15.991C121.548 15.5361 122.065 14.9514 122.42 14.2692C122.807 13.5544 123.002 12.7098 123.002 11.7677V10.2409C123.002 9.62364 122.807 9.03889 122.485 8.48662H122.517C123.196 8.48662 123.679 8.2917 123.971 7.93436C124.261 7.54452 124.423 7.12219 124.423 6.63491C124.423 6.14761 124.261 5.72529 123.938 5.30297C123.647 4.88064 123.163 4.65325 122.485 4.65325H118.674C118.641 3.90606 118.383 3.32131 117.899 2.89899C117.414 2.47667 116.8 2.24927 115.993 2.24927C115.185 2.24927 114.572 2.47667 114.087 2.89899C113.603 3.32131 113.377 3.90606 113.344 4.65325H109.501C108.855 4.65325 108.338 4.88064 108.015 5.30297C107.692 5.72529 107.531 6.14761 107.531 6.63491C107.531 7.12219 107.692 7.54452 108.015 7.93436C108.37 8.2917 108.855 8.48662 109.501 8.48662C109.146 9.03889 108.984 9.62364 108.984 10.2409V11.7677C108.984 12.7423 109.178 13.5544 109.533 14.2692C109.921 14.9514 110.405 15.5361 111.051 15.991C111.697 16.4457 112.44 16.7706 113.279 16.998ZM110.082 21.9684C110.47 22.3583 111.051 22.5531 111.794 22.5531H125.553C125.973 22.5531 126.199 22.7806 126.199 23.2028V27.4586H131.496V22.4232C131.496 21.611 131.431 20.9614 131.335 20.4415C131.237 19.9217 131.076 19.4994 130.785 19.1746C130.495 18.8822 130.107 18.6548 129.59 18.5248C129.074 18.3949 128.428 18.33 127.588 18.33H111.794C111.051 18.33 110.502 18.5248 110.082 18.9146C109.695 19.3046 109.501 19.8243 109.501 20.4415C109.501 21.0588 109.695 21.5785 110.082 21.9684ZM126.748 3.15888C126.232 3.61369 125.973 4.26341 125.973 5.14054H126.005V17.4203H131.237V12.1251H132.045C132.432 12.1251 132.756 12.0601 133.013 11.9302C133.272 11.8002 133.498 11.6378 133.659 11.4104C133.822 11.1829 133.951 10.9231 134.016 10.6632C134.079 10.4033 134.112 10.1109 134.112 9.85104C134.112 9.55866 134.079 9.29877 134.016 9.03889C133.918 8.74651 133.822 8.5191 133.659 8.2917C133.498 8.09678 133.272 7.90187 133.013 7.77192C132.756 7.60949 132.432 7.54452 132.012 7.54452H131.205V5.14054C131.205 4.2959 130.915 3.64618 130.397 3.19137C129.881 2.73655 129.267 2.50916 128.589 2.50916C127.879 2.50916 127.265 2.70408 126.748 3.15888ZM117.446 13.0672C116.994 13.392 116.509 13.5544 115.96 13.5544C115.412 13.5544 114.927 13.392 114.442 13.0672C114.023 12.7423 113.797 12.2551 113.797 11.6053V10.2084C113.797 9.59115 113.991 9.10385 114.442 8.779C114.927 8.42164 115.412 8.25921 115.96 8.25921C116.509 8.25921 116.994 8.45413 117.446 8.779C117.899 9.10385 118.124 9.55866 118.124 10.2084V11.6053C118.124 12.2551 117.899 12.7423 117.446 13.0672ZM97.2611 5.83858C97.2689 5.70855 97.277 5.5745 97.2927 5.43292C97.3249 4.58828 97.1312 3.93855 96.6467 3.41877C96.2268 2.96396 95.6131 2.67159 94.838 2.60662C94.1274 2.54165 93.4492 2.70408 92.9001 3.12639C92.351 3.51623 92.0281 4.13346 91.8988 4.97812C91.7696 5.92021 91.479 6.79734 91.0268 7.60949C90.5746 8.38916 90.0256 9.07138 89.3795 9.65612C88.7336 10.2409 88.0231 10.7282 87.2156 11.118C86.4082 11.5078 85.6008 11.7677 84.7286 11.9302C84.0827 12.0601 83.5659 12.3525 83.2107 12.8397C82.8876 13.2946 82.7261 13.8468 82.7907 14.4965C82.8554 15.1463 83.1137 15.6661 83.5659 16.0234C84.0181 16.3808 84.5995 16.5432 85.2454 16.5432C86.1498 16.5432 87.0541 16.4457 87.9907 16.1858C88.8951 15.926 89.7995 15.5686 90.6715 15.1138C91.5436 14.6266 92.3833 14.0742 93.1262 13.4245C93.9013 12.7748 94.5796 12.0601 95.1933 11.248C95.9685 11.248 96.679 11.3454 97.3573 11.5729C98.0355 11.8002 98.6491 12.1575 99.1659 12.6124C99.6827 13.0672 100.135 13.6195 100.49 14.2692C100.845 14.9189 101.104 15.6661 101.233 16.4782H106.562C106.465 14.8864 106.11 13.4895 105.529 12.2875C104.947 11.0855 104.204 10.1109 103.332 9.36374C102.46 8.58408 101.491 7.99933 100.393 7.64198C99.3274 7.25214 98.2293 7.05723 97.0988 7.02475C97.1634 6.76489 97.1958 6.50503 97.2281 6.24517C97.2447 6.11116 97.2528 5.97705 97.2611 5.83858ZM97.3895 27.5885V21.9034H104.85C105.626 21.9034 106.207 21.7085 106.53 21.2537C106.885 20.7989 107.047 20.3116 107.047 19.7593C107.047 19.4994 107.014 19.2395 106.917 18.9797C106.853 18.7198 106.724 18.4924 106.562 18.265C106.401 18.0376 106.175 17.8751 105.884 17.7452C105.593 17.6153 105.27 17.5502 104.85 17.5502H84.5025C84.0827 17.5502 83.7597 17.6153 83.469 17.7452C83.2107 17.8751 82.9522 18.0376 82.7907 18.265C82.6293 18.4599 82.5 18.7198 82.4032 18.9797C82.3386 19.2395 82.3063 19.4994 82.3063 19.7593C82.3063 20.3116 82.5 20.7989 82.8231 21.2537C83.1783 21.6761 83.7274 21.9034 84.5349 21.9034H91.9957V27.5885H97.3895ZM60.8273 26.419C59.9553 26.419 59.277 26.3541 58.728 26.2241C58.2112 26.0942 57.7913 25.8667 57.5006 25.5743C57.2099 25.2819 57.0162 24.8596 56.9193 24.3399C56.8223 23.8201 56.7578 23.1379 56.7578 22.2933V7.57701C56.7578 6.73237 56.8223 6.05015 56.9193 5.53038C57.0162 5.01059 57.2099 4.58828 57.5006 4.2959C57.7913 3.97103 58.2112 3.77611 58.728 3.64618C59.2448 3.51623 59.9553 3.45126 60.8273 3.45126H69.2249C69.6125 3.45126 69.9354 3.51623 70.1615 3.67866C70.4199 3.8086 70.6137 4.00352 70.7752 4.19844C70.9367 4.42584 71.0335 4.65325 71.0982 4.91313C71.1628 5.17302 71.1951 5.43292 71.1951 5.69281C71.1951 5.95269 71.1628 6.21258 71.0982 6.50496C71.0335 6.76485 70.9367 7.02473 70.7752 7.21965C70.6137 7.44706 70.4199 7.60949 70.1293 7.73944C69.8708 7.86938 69.5802 7.96684 69.1926 7.96684H62.6037C62.3454 7.96684 62.1839 8.03182 62.087 8.12927C61.9901 8.22673 61.9256 8.45413 61.9256 8.74651V21.2212C61.9256 21.5136 61.9901 21.741 62.087 21.8384C62.1839 21.9359 62.3776 22.0009 62.6037 22.0009H70.3876C70.7752 22.0009 71.0982 22.0659 71.3243 22.2282C71.5827 22.3583 71.7765 22.5531 71.9379 22.7481C72.0994 22.9755 72.1963 23.2028 72.2609 23.4628C72.3255 23.7227 72.3579 23.9826 72.3579 24.2424C72.3579 24.5023 72.3255 24.7622 72.2609 25.0546C72.1963 25.3145 72.0994 25.5419 71.9379 25.7368C71.7765 25.9641 71.5827 26.1266 71.292 26.2565C71.0335 26.3865 70.743 26.484 70.3554 26.484H60.8273V26.419ZM73.9404 5.10805C73.9404 4.26341 74.1988 3.61369 74.7478 3.19137C75.2646 2.73655 75.8783 2.54165 76.5566 2.54165C76.8796 2.54165 77.2025 2.60662 77.5255 2.73655C77.8486 2.83401 78.1069 2.99645 78.333 3.22385C78.5913 3.45126 78.7852 3.71115 78.9143 4.03601C79.0758 4.36087 79.1404 4.71822 79.1404 5.14054V11.8651H80.0125C80.4324 11.8651 80.7553 11.9302 81.0138 12.0926C81.2721 12.2225 81.4982 12.4174 81.6597 12.6449C81.8212 12.8722 81.9181 13.0997 82.015 13.392C82.0795 13.652 82.1119 13.9118 82.1119 14.2041C82.1119 14.4965 82.0795 14.7565 82.015 15.0164C81.9504 15.2763 81.8212 15.5361 81.6597 15.7635C81.4982 15.991 81.2721 16.1533 81.0138 16.2834C80.7553 16.4133 80.4324 16.5107 80.0448 16.5107H79.1728V27.5235H73.9404V5.10805ZM39.1888 17.9726V22.6181H31.7278C31.308 22.6181 30.9851 22.6831 30.6943 22.813C30.4359 22.9429 30.1775 23.1054 30.0161 23.3329C29.8546 23.5277 29.7253 23.7551 29.6285 24.0151C29.5639 24.2749 29.5316 24.5348 29.5316 24.7947C29.5316 25.347 29.7253 25.8342 30.0483 26.289C30.4036 26.7114 30.9527 26.9387 31.7602 26.9387H52.0434C52.8186 26.9387 53.4 26.7439 53.723 26.289C54.0782 25.8342 54.2398 25.347 54.2398 24.7947C54.2398 24.5348 54.2074 24.2749 54.1105 24.0151C54.0459 23.7551 53.9167 23.5277 53.7552 23.3329C53.5937 23.1054 53.3676 22.9429 53.0769 22.813C52.7863 22.6831 52.4634 22.6181 52.0434 22.6181H44.5826V17.9726H52.8832V5.36794C52.8832 4.91313 52.8186 4.55579 52.6571 4.26341C52.4956 3.97103 52.3018 3.71115 52.0434 3.54872C51.7851 3.3538 51.4944 3.22385 51.1714 3.12639C50.8484 3.02893 50.5254 2.99645 50.2024 2.99645C49.8472 2.99645 49.4919 3.02893 49.1689 3.12639C48.8459 3.22385 48.5875 3.3538 48.3291 3.54872C48.0708 3.71115 47.8769 3.97103 47.7155 4.26341C47.554 4.58828 47.4894 4.94562 47.4894 5.36794V6.43999H36.2819V5.43292C36.2819 4.9781 36.2173 4.62076 36.0558 4.32838C35.8943 4.03601 35.6682 3.77611 35.4099 3.5812C35.1838 3.38629 34.8931 3.25634 34.5701 3.15888C34.2471 3.06142 33.9242 2.99645 33.6011 2.99645C33.2459 2.99645 32.8906 3.02893 32.5676 3.12639C32.2447 3.22385 31.9539 3.3538 31.6956 3.54872C31.4371 3.71115 31.2434 3.97103 31.0819 4.26341C30.9204 4.58828 30.8558 4.94562 30.8558 5.36794V13.8793C30.8558 14.659 30.8881 15.3412 30.9851 15.861C31.0819 16.3483 31.2757 16.7706 31.5664 17.0955C31.8571 17.4203 32.2447 17.6478 32.7291 17.7777C33.2135 17.9076 33.8596 17.9726 34.667 17.9726H39.1888ZM47.4894 10.5658V13.7169V13.7494H37.0894C36.7987 13.7494 36.5726 13.6844 36.4434 13.5544C36.3465 13.392 36.2819 13.1971 36.2819 12.9373V10.5658H47.4894Z" fill="black"/>
<path d="M21.559 15.8121C21.2361 15.6821 21.0422 15.3573 21.0422 14.9999C21.0422 14.6426 21.2683 14.3177 21.559 14.1878C23.9168 12.9858 25.5317 10.5169 25.5317 7.69056C25.5317 3.66228 22.2696 0.381165 18.2646 0.381165H4.27949C2.40619 0.413653 0.888184 1.9405 0.888184 3.82471V14.9999V26.1752C0.888184 28.0594 2.40619 29.5863 4.27949 29.5863H18.2646C22.2696 29.5863 25.5317 26.3051 25.5317 22.2769C25.4994 19.4831 23.9168 17.0141 21.559 15.8121Z" fill="#239AFF"/>
<path d="M11.6104 10.647C13.193 10.647 14.4849 9.18514 14.4849 7.3984C14.4849 5.61166 13.193 4.14978 11.6104 4.14978C10.0278 4.14978 8.73584 5.61166 8.73584 7.3984C8.73584 9.18514 10.0278 10.647 11.6104 10.647Z" fill="white"/>
<path d="M10.5122 9.38003C11.4812 9.38003 12.2887 8.47042 12.2887 7.36589C12.2887 6.26136 11.4812 5.35175 10.5122 5.35175C9.5433 5.35175 8.73584 6.26136 8.73584 7.36589C8.73584 8.50291 9.5433 9.38003 10.5122 9.38003Z" fill="#1A2D3D"/>
<path d="M11.7712 6.42377C12.0942 6.09891 12.2234 5.64411 12.0296 5.44919C11.8358 5.25427 11.4159 5.38421 11.093 5.70908C10.77 6.03393 10.6408 6.48875 10.8346 6.68366C11.0284 6.87858 11.4482 6.74864 11.7712 6.42377Z" fill="white"/>
<path d="M18.4563 10.647C20.0389 10.647 21.3308 9.18514 21.3308 7.3984C21.3308 5.61166 20.0389 4.14978 18.4563 4.14978C16.8736 4.14978 15.5817 5.61166 15.5817 7.3984C15.614 9.18514 16.8736 10.647 18.4563 10.647Z" fill="white"/>
<path d="M17.393 9.38003C18.3619 9.38003 19.1694 8.47042 19.1694 7.36589C19.1694 6.26136 18.3619 5.35175 17.393 5.35175C16.424 5.35175 15.6166 6.26136 15.6166 7.36589C15.6166 8.50291 16.3917 9.38003 17.393 9.38003Z" fill="#1A2D3D"/>
<path d="M18.6522 6.42377C18.9752 6.09891 19.1044 5.64411 18.9106 5.44919C18.7168 5.25427 18.2969 5.38421 17.9739 5.70908C17.651 6.03393 17.5217 6.48875 17.7156 6.68366C17.9093 6.87858 18.3293 6.74864 18.6522 6.42377Z" fill="white"/>
</svg>
